<svg width="17" height="20" viewBox="0 0 17 20" fill="none" xmlns="http://www.w3.org/2000/svg">
<path d="M15.8599 8.63012L2.73023 1.13794C2.4534 0.982866 2.13592 0.915752 1.82001 0.945523C1.50411 0.975293 1.20476 1.10054 0.961772 1.30459C0.718787 1.50865 0.543686 1.78185 0.45976 2.08785C0.375834 2.39385 0.38706 2.71816 0.491947 3.01762L2.84976 9.99887L0.491947 16.9801C0.409053 17.2156 0.383807 17.4676 0.418323 17.7149C0.452839 17.9622 0.546113 18.1976 0.690331 18.4014C0.834548 18.6052 1.02551 18.7715 1.24722 18.8863C1.46892 19.0012 1.71492 19.0612 1.9646 19.0614C2.2331 19.0608 2.49697 18.9914 2.73101 18.8598L2.73804 18.8551L15.863 11.3497C16.1037 11.2134 16.3039 11.0158 16.4432 10.7769C16.5824 10.538 16.6558 10.2664 16.6558 9.98989C16.6558 9.71336 16.5824 9.44178 16.4432 9.20289C16.3039 8.96399 16.1037 8.76635 15.863 8.63012H15.8599ZM2.52632 16.8161L4.51226 10.9364H8.8396C9.08824 10.9364 9.3267 10.8376 9.50251 10.6618C9.67833 10.486 9.7771 10.2475 9.7771 9.99887C9.7771 9.75023 9.67833 9.51178 9.50251 9.33596C9.3267 9.16014 9.08824 9.06137 8.8396 9.06137H4.51226L2.52554 3.18012L14.4599 9.99028L2.52632 16.8161Z" fill="white" style="fill:white;fill-opacity:1;"/>
</svg>
