<svg width="41" height="40" viewBox="0 0 41 40" fill="none" xmlns="http://www.w3.org/2000/svg">
<rect x="1.02979" y="0.5" width="39" height="39" rx="19.5" stroke="#543C52" style="stroke:#543C52;stroke:color(display-p3 0.3294 0.2353 0.3216);stroke-opacity:1;"/>
<path d="M12.1963 15C12.1963 14.116 12.5475 13.2681 13.1726 12.643C13.7977 12.0179 14.6456 11.6667 15.5296 11.6667H25.5296C26.4137 11.6667 27.2615 12.0179 27.8866 12.643C28.5118 13.2681 28.863 14.116 28.863 15V25C28.863 25.8841 28.5118 26.7319 27.8866 27.357C27.2615 27.9822 26.4137 28.3334 25.5296 28.3334H15.5296C14.6456 28.3334 13.7977 27.9822 13.1726 27.357C12.5475 26.7319 12.1963 25.8841 12.1963 25V15Z" stroke="#543C52" style="stroke:#543C52;stroke:color(display-p3 0.3294 0.2353 0.3216);stroke-opacity:1;" stroke-width="1.66667" stroke-linecap="round" stroke-linejoin="round"/>
<path d="M17.6131 19.1667C18.7637 19.1667 19.6965 18.2339 19.6965 17.0833C19.6965 15.9328 18.7637 15 17.6131 15C16.4625 15 15.5298 15.9328 15.5298 17.0833C15.5298 18.2339 16.4625 19.1667 17.6131 19.1667Z" stroke="#543C52" style="stroke:#543C52;stroke:color(display-p3 0.3294 0.2353 0.3216);stroke-opacity:1;" stroke-width="1.66667" stroke-linecap="round" stroke-linejoin="round"/>
<path d="M22.6348 20.5175L15.5298 28.3334H25.6406C26.4953 28.3334 27.3149 27.9938 27.9193 27.3895C28.5236 26.7852 28.8631 25.9655 28.8631 25.1109V25C28.8631 24.6117 28.7173 24.4625 28.4548 24.175L25.0965 20.5125C24.9399 20.3418 24.7495 20.2055 24.5374 20.1125C24.3253 20.0195 24.0961 19.9716 23.8645 19.9721C23.6329 19.9726 23.4039 20.0213 23.1922 20.1152C22.9804 20.2091 22.7906 20.3462 22.6348 20.5175Z" stroke="#543C52" style="stroke:#543C52;stroke:color(display-p3 0.3294 0.2353 0.3216);stroke-opacity:1;" stroke-width="1.66667" stroke-linecap="round" stroke-linejoin="round"/>
</svg>
