<svg width="21" height="20" viewBox="0 0 21 20" fill="none" xmlns="http://www.w3.org/2000/svg">
<path d="M19.0459 6.98984C18.8406 6.75722 18.5881 6.57094 18.3052 6.44338C18.0223 6.31583 17.7156 6.24991 17.4053 6.25H13.3428V5.3125C13.3417 4.40114 12.9792 3.52739 12.3348 2.88296C11.6904 2.23853 10.8166 1.87603 9.90527 1.875C9.73124 1.87502 9.56065 1.92348 9.41259 2.01496C9.26454 2.10645 9.14487 2.23733 9.06699 2.39297L6.20059 8.125H3.03027C2.61587 8.125 2.21844 8.28962 1.92542 8.58265C1.63239 8.87567 1.46777 9.2731 1.46777 9.6875V16.5625C1.46777 16.9769 1.63239 17.3743 1.92542 17.6674C2.21844 17.9604 2.61587 18.125 3.03027 18.125H16.4678C17.0009 18.1249 17.5157 17.9301 17.9154 17.5772C18.315 17.2243 18.572 16.7376 18.6381 16.2086L19.5756 8.70859C19.6142 8.40093 19.5869 8.08858 19.4956 7.79226C19.4042 7.49595 19.251 7.22243 19.0459 6.98984ZM3.34277 10H5.84277V16.25H3.34277V10ZM17.7178 8.47656L16.7803 15.9766C16.7707 16.0525 16.7336 16.1223 16.676 16.1727C16.6184 16.2231 16.5443 16.2506 16.4678 16.25H7.71777V9.28359L10.4381 3.84375C10.7398 3.95319 11.0005 4.15287 11.1847 4.41565C11.3689 4.67843 11.4678 4.99157 11.4678 5.3125V7.1875C11.4678 7.43614 11.5665 7.6746 11.7424 7.85041C11.9182 8.02623 12.1566 8.125 12.4053 8.125H17.4053C17.4498 8.12465 17.4939 8.13383 17.5346 8.15192C17.5753 8.17 17.6117 8.19659 17.6413 8.22988C17.6709 8.26317 17.693 8.3024 17.7062 8.34495C17.7194 8.3875 17.7233 8.43237 17.7178 8.47656Z" fill="#81818D" style="fill:#81818D;fill:color(display-p3 0.5059 0.5059 0.5529);fill-opacity:1;"/>
</svg>
