<svg width="21" height="21" viewBox="0 0 21 21" fill="none" xmlns="http://www.w3.org/2000/svg">
<path d="M3.04972 7.99798C3.04963 7.27282 3.22979 6.55901 3.574 5.92075C3.91822 5.28249 4.41568 4.7398 5.02166 4.34149C5.62763 3.94318 6.32311 3.70175 7.04554 3.6389C7.76797 3.57605 8.4947 3.69376 9.16035 3.98144C9.826 4.26913 10.4097 4.71776 10.859 5.28699C11.3082 5.85622 11.6089 6.52819 11.7341 7.24247C11.8592 7.95675 11.8048 8.69094 11.5759 9.37899C11.3469 10.067 10.9504 10.6874 10.4222 11.1842C11.4181 11.6677 12.2828 12.3841 12.9429 13.2728C13.6031 14.1615 14.0394 15.1962 14.2147 16.2892C14.234 16.4109 14.2291 16.5351 14.2004 16.6549C14.1717 16.7746 14.1197 16.8876 14.0473 16.9872C13.9749 17.0869 13.8836 17.1713 13.7786 17.2356C13.6736 17.3 13.557 17.3431 13.4353 17.3624C13.3137 17.3816 13.1895 17.3768 13.0697 17.3481C12.9499 17.3193 12.837 17.2673 12.7374 17.1949C12.6377 17.1225 12.5533 17.0313 12.4889 16.9263C12.4246 16.8213 12.3815 16.7046 12.3622 16.583C12.1747 15.4084 11.5746 14.3391 10.6697 13.5671C9.76472 12.7951 8.6142 12.3711 7.42472 12.3711C6.23523 12.3711 5.08471 12.7951 4.17976 13.5671C3.2748 14.3391 2.6747 15.4084 2.48722 16.583C2.46785 16.7046 2.42471 16.8212 2.36027 16.9262C2.29582 17.0312 2.21133 17.1224 2.11163 17.1947C2.01192 17.267 1.89895 17.319 1.77916 17.3477C1.65937 17.3763 1.5351 17.3811 1.41347 17.3617C1.29183 17.3424 1.1752 17.2992 1.07023 17.2348C0.96527 17.1703 0.874025 17.0858 0.801712 16.9861C0.729398 16.8864 0.677431 16.7735 0.648778 16.6537C0.620126 16.5339 0.615348 16.4096 0.634718 16.288C0.809433 15.195 1.24546 14.1604 1.90574 13.272C2.56601 12.3837 3.43102 11.6679 4.42722 11.1855C3.99222 10.7763 3.64559 10.2824 3.40869 9.73424C3.17179 9.18605 3.04962 8.59517 3.04972 7.99798ZM14.2997 6.12298C15.026 6.12348 15.7365 6.3348 16.345 6.73129C16.9535 7.12777 17.4338 7.69236 17.7276 8.35654C18.0215 9.02071 18.1162 9.75589 18.0003 10.4729C17.8844 11.1898 17.5628 11.8577 17.0747 12.3955C17.836 12.7726 18.5124 13.301 19.0626 13.9483C19.6128 14.5957 20.0252 15.3484 20.2747 16.1605C20.3243 16.3181 20.3312 16.486 20.2949 16.6471C20.2586 16.8083 20.1803 16.9569 20.068 17.078C19.9556 17.1992 19.8132 17.2884 19.6552 17.3367C19.4973 17.3849 19.3293 17.3906 19.1685 17.353C19.0076 17.3158 18.8595 17.2368 18.739 17.124C18.6185 17.0111 18.5299 16.8685 18.4822 16.7105C18.2579 15.9859 17.8495 15.3319 17.297 14.8122C16.7445 14.2926 16.0667 13.925 15.3297 13.7455C15.125 13.6961 14.9429 13.5792 14.8128 13.4136C14.6826 13.2481 14.612 13.0436 14.6122 12.833V12.393C14.6121 12.2184 14.6607 12.0473 14.7526 11.8989C14.8445 11.7505 14.9759 11.6307 15.1322 11.553C15.5112 11.3652 15.8155 11.0548 15.9958 10.6722C16.176 10.2896 16.2217 9.85726 16.1252 9.44546C16.0288 9.03366 15.796 8.66656 15.4646 8.40379C15.1332 8.14101 14.7227 7.998 14.2997 7.99798C14.0511 7.99798 13.8126 7.8992 13.6368 7.72339C13.461 7.54757 13.3622 7.30912 13.3622 7.06048C13.3622 6.81184 13.461 6.57338 13.6368 6.39756C13.8126 6.22175 14.0511 6.12298 14.2997 6.12298ZM7.42472 5.49798C7.09179 5.49045 6.76072 5.54951 6.45094 5.67169C6.14115 5.79387 5.8589 5.97671 5.62075 6.20948C5.3826 6.44225 5.19336 6.72025 5.06413 7.02716C4.93489 7.33407 4.86828 7.6637 4.8682 7.99671C4.86811 8.32972 4.93456 8.65939 5.06364 8.96637C5.19272 9.27334 5.38182 9.55143 5.61986 9.78432C5.85789 10.0172 6.14005 10.2002 6.44977 10.3225C6.7595 10.4449 7.09054 10.5041 7.42347 10.4967C8.07667 10.4823 8.69826 10.2127 9.15518 9.74568C9.6121 9.27866 9.86803 8.65132 9.8682 7.99796C9.86836 7.3446 9.61274 6.71714 9.15605 6.24989C8.69937 5.78264 8.07791 5.51275 7.42472 5.49798Z" fill="#81818D" style="fill:#81818D;fill:color(display-p3 0.5059 0.5059 0.5529);fill-opacity:1;"/>
</svg>
