<svg width="21" height="20" viewBox="0 0 21 20" fill="none" xmlns="http://www.w3.org/2000/svg">
<path d="M3.62451 2.22754H8.62451C8.83266 2.22754 9.03321 2.29997 9.19287 2.43066L9.25928 2.49023C9.42759 2.65855 9.52197 2.88697 9.52197 3.125C9.52197 3.33315 9.44955 3.5337 9.31885 3.69336L9.25928 3.75977C9.09096 3.92808 8.86254 4.02246 8.62451 4.02246H4.52197V15.9775H8.62451C8.83266 15.9775 9.03321 16.05 9.19287 16.1807L9.25928 16.2402C9.42759 16.4085 9.52197 16.637 9.52197 16.875C9.52197 17.0831 9.44955 17.2837 9.31885 17.4434L9.25928 17.5098C9.09096 17.6781 8.86254 17.7725 8.62451 17.7725H3.62451C3.41637 17.7725 3.21581 17.7 3.05615 17.5693L2.98975 17.5098C2.82143 17.3415 2.72705 17.113 2.72705 16.875V3.125C2.72705 2.91685 2.79948 2.7163 2.93018 2.55664L2.98975 2.49023C3.15806 2.32192 3.38648 2.22754 3.62451 2.22754ZM14.2485 5.97656C14.4573 5.97656 14.6588 6.04938 14.8188 6.18066L14.8843 6.24023L18.0093 9.36523C18.072 9.42783 18.1248 9.49929 18.1665 9.57715L18.2046 9.65625C18.2498 9.76537 18.273 9.88285 18.2729 10.001L18.269 10.0889C18.2632 10.1475 18.2511 10.2053 18.2339 10.2617L18.2046 10.3447C18.1705 10.4266 18.1241 10.5031 18.0679 10.5713L18.0093 10.6367H18.0083L14.8833 13.7617C14.7147 13.9302 14.4859 14.0254 14.2476 14.0254C14.0391 14.0253 13.8381 13.9523 13.6782 13.8213L13.6118 13.7617C13.4433 13.5932 13.3492 13.3643 13.3491 13.126C13.3491 12.9173 13.4211 12.7157 13.5522 12.5557L13.6118 12.4902L15.1372 10.9658L15.2056 10.8975H8.62451C8.41637 10.8975 8.21581 10.825 8.05615 10.6943L7.98975 10.6348C7.82143 10.4665 7.72705 10.238 7.72705 10C7.72705 9.79185 7.79948 9.5913 7.93018 9.43164L7.98975 9.36523C8.15806 9.19692 8.38648 9.10254 8.62451 9.10254H15.2056L15.1372 9.03418L13.6128 7.51172C13.4442 7.34315 13.3492 7.11437 13.3491 6.87598C13.3491 6.66725 13.422 6.46569 13.5532 6.30566L13.6128 6.24023C13.7814 6.07166 14.0101 5.97661 14.2485 5.97656Z" fill="#543C52" stroke="#543C52" style="fill:#543C52;fill:color(display-p3 0.3294 0.2353 0.3216);fill-opacity:1;stroke:#543C52;stroke:color(display-p3 0.3294 0.2353 0.3216);stroke-opacity:1;" stroke-width="0.08"/>
</svg>
