<svg width="21" height="20" viewBox="0 0 21 20" fill="none" xmlns="http://www.w3.org/2000/svg">
<path d="M17.633 8.62499L11.5715 2.56355C11.2873 2.27946 10.902 2.11987 10.5001 2.11987C10.0983 2.11987 9.71296 2.27946 9.42879 2.56355L3.36735 8.62499C3.22606 8.76541 3.11406 8.93249 3.03784 9.11653C2.96163 9.30057 2.92271 9.49791 2.92335 9.69711V16.9708C2.92335 17.212 3.01914 17.4432 3.18965 17.6138C3.36016 17.7843 3.59142 17.8801 3.83256 17.8801H17.1677C17.4089 17.8801 17.6401 17.7843 17.8106 17.6138C17.9812 17.4432 18.077 17.212 18.077 16.9708V9.69711C18.0776 9.49791 18.0387 9.30057 17.9625 9.11653C17.8862 8.93249 17.7742 8.76541 17.633 8.62499ZM16.2585 16.0616H4.74178V9.82213L10.5001 4.06376L16.2585 9.82213V16.0616Z" fill="#070A1C" style="fill:#070A1C;fill:color(display-p3 0.0275 0.0392 0.1098);fill-opacity:1;"/>
</svg>
