<svg width="21" height="20" viewBox="0 0 21 20" fill="none" xmlns="http://www.w3.org/2000/svg">
<circle cx="2.34996" cy="2.34996" r="2.34996" transform="matrix(-1 0 0 1 12.8066 7.65027)" stroke="#070A1C" style="stroke:#070A1C;stroke:color(display-p3 0.0275 0.0392 0.1098);stroke-opacity:1;" stroke-width="1.8"/>
<path d="M10.4571 2.16699L10.4572 1.26699H10.4571V2.16699ZM13.9815 4.46777L13.5315 5.24715L13.5315 5.2472L13.9815 4.46777ZM15.9395 9.2168L15.0395 9.21677V9.2168H15.9395ZM13.9815 15.5322L13.5315 14.7528L13.5315 14.7528L13.9815 15.5322ZM10.4571 17.833V18.733H10.4572L10.4571 17.833ZM6.93173 15.5322L7.38173 14.7528L7.38173 14.7528L6.93173 15.5322ZM4.19052 10H5.09052V9.99993L4.19052 10ZM6.93173 4.46777L7.38173 5.2472L7.38174 5.24719L6.93173 4.46777ZM3.10815 7.28771L2.26378 6.97621L3.10815 7.28771ZM5.33957 15.2563L5.50099 16.1417L5.33957 15.2563ZM4.43127 15.0027L3.73909 15.5779L4.43127 15.0027ZM8.64423 17.6219L8.4366 18.4976L8.64423 17.6219ZM8.01345 16.9192L8.87885 16.672L8.01345 16.9192ZM12.8998 16.9192L12.0345 16.672L12.8998 16.9192ZM12.269 17.6219L12.0614 16.7462L12.269 17.6219ZM16.4809 15.0031L15.789 14.4275L16.4809 15.0031ZM15.573 15.2566L15.4117 16.142L15.573 15.2566ZM17.2679 6.13031L16.4861 6.57613L17.2679 6.13031ZM16.8581 7.35563L16.3099 6.64187L16.8581 7.35563ZM3.44047 11.7181L4.05304 12.3774L3.44047 11.7181ZM15.573 4.7427L15.4112 3.85738L15.573 4.7427ZM4.43122 4.99632L3.73904 4.4211L4.43122 4.99632ZM17.2554 11.3248L17.6513 10.5166L17.2554 11.3248ZM17.9004 12.4426L18.7555 12.7233L17.9004 12.4426ZM12.269 2.37811L12.0614 3.25383L12.269 2.37811ZM12.8998 3.08086L13.7652 2.83364L12.8998 3.08086ZM10.4571 2.16699L10.4571 3.06699C11.0102 3.06702 11.5471 3.1319 12.0614 3.25383L12.269 2.37811L12.4766 1.50239C11.8278 1.34853 11.1515 1.26703 10.4572 1.26699L10.4571 2.16699ZM12.8998 3.08086L12.0345 3.32808C12.2572 4.10767 12.7716 4.80836 13.5315 5.24715L13.9815 4.46777L14.4316 3.6884C14.0935 3.49313 13.8652 3.18362 13.7652 2.83364L12.8998 3.08086ZM13.9815 4.46777L13.5315 5.2472C14.2254 5.64782 15.0062 5.76127 15.7349 5.62802L15.573 4.7427L15.4112 3.85738C15.0845 3.91711 14.7399 3.86639 14.4315 3.68835L13.9815 4.46777ZM16.481 4.99588L15.7893 5.57168C16.05 5.88481 16.2835 6.22077 16.4861 6.57613L17.2679 6.13031L18.0498 5.68448C17.7942 5.23638 17.5003 4.81353 17.1728 4.42008L16.481 4.99588ZM16.8581 7.35563L16.3099 6.64187C15.5397 7.23345 15.0396 8.16605 15.0395 9.21677L15.9395 9.2168L16.8395 9.21682C16.8396 8.75004 17.0597 8.3356 17.4063 8.06939L16.8581 7.35563ZM15.9395 9.2168H15.0395C15.0395 10.5004 15.784 11.6061 16.8594 12.133L17.2554 11.3248L17.6513 10.5166C17.1683 10.2799 16.8395 9.78632 16.8395 9.2168H15.9395ZM17.9004 12.4426L17.0453 12.1619C16.7709 12.9978 16.3409 13.7641 15.789 14.4275L16.4809 15.0031L17.1728 15.5787C17.8665 14.7448 18.4089 13.7792 18.7555 12.7233L17.9004 12.4426ZM15.573 15.2566L15.7344 14.3711C15.0055 14.2383 14.2249 14.3525 13.5315 14.7528L13.9815 15.5322L14.4315 16.3116C14.7402 16.1334 15.0851 16.0825 15.4117 16.142L15.573 15.2566ZM13.9815 15.5322L13.5315 14.7528C12.7716 15.1916 12.2572 15.8924 12.0345 16.672L12.8998 16.9192L13.7652 17.1664C13.8652 16.8164 14.0935 16.5069 14.4316 16.3116L13.9815 15.5322ZM12.269 17.6219L12.0614 16.7462C11.5472 16.8681 11.0102 16.933 10.4571 16.933L10.4571 17.833L10.4572 18.733C11.1515 18.733 11.8278 18.6515 12.4767 18.4976L12.269 17.6219ZM10.4571 17.833V16.933C9.90373 16.933 9.36635 16.8681 8.85185 16.7462L8.64423 17.6219L8.4366 18.4976C9.08586 18.6515 9.76256 18.733 10.4571 18.733V17.833ZM8.01345 16.9192L8.87885 16.672C8.65618 15.8924 8.14176 15.1916 7.38173 14.7528L6.93173 15.5322L6.48173 16.3116C6.81986 16.5069 7.04808 16.8163 7.14806 17.1663L8.01345 16.9192ZM6.93173 15.5322L7.38173 14.7528C6.6883 14.3525 5.90742 14.238 5.17815 14.3709L5.33957 15.2563L5.50099 16.1417C5.82748 16.0822 6.17266 16.1332 6.48174 16.3117L6.93173 15.5322ZM4.43127 15.0027L5.12345 14.4275C4.62518 13.8279 4.22678 13.1437 3.95239 12.3996L3.10798 12.7111L2.26358 13.0225C2.6098 13.9612 3.11206 14.8234 3.73909 15.5779L4.43127 15.0027ZM3.44047 11.7181L4.05304 12.3774C4.68907 11.7865 5.09052 10.9405 5.09052 10H4.19052H3.29052C3.29052 10.4178 3.11402 10.7929 2.82789 11.0587L3.44047 11.7181ZM4.19052 10L5.09052 9.99993C5.09045 9.05985 4.68952 8.21331 4.05345 7.62199L3.44067 8.28116L2.82789 8.94032C3.11388 9.20619 3.29049 9.58181 3.29052 10.0001L4.19052 10ZM3.10815 7.28771L3.95253 7.59921C4.227 6.85521 4.62529 6.17093 5.1234 5.57155L4.43122 4.99632L3.73904 4.4211C3.11204 5.17557 2.60998 6.03777 2.26378 6.97621L3.10815 7.28771ZM5.33954 4.74295L5.17757 5.62825C5.9067 5.76165 6.68777 5.64786 7.38173 5.2472L6.93173 4.46777L6.48173 3.68835C6.17296 3.86662 5.82812 3.9174 5.5015 3.85764L5.33954 4.74295ZM6.93173 4.46777L7.38174 5.24719C8.14174 4.8084 8.65618 4.10766 8.87886 3.32801L8.01346 3.08085L7.14806 2.83369C7.0481 3.18368 6.81989 3.49311 6.48173 3.68835L6.93173 4.46777ZM8.64426 2.37812L8.85187 3.25385C9.36638 3.13187 9.90378 3.06699 10.4571 3.06699V2.16699V1.26699C9.7626 1.26699 9.08588 1.34848 8.43665 1.5024L8.64426 2.37812ZM8.01346 3.08085L8.87886 3.32801C8.88761 3.29737 8.89807 3.27122 8.90845 3.25065C8.9189 3.22994 8.92724 3.21886 8.93036 3.21514C8.93327 3.21167 8.9288 3.21793 8.91443 3.22737C8.89903 3.23748 8.87737 3.2478 8.85187 3.25385L8.64426 2.37812L8.43665 1.5024C7.65647 1.68736 7.28394 2.35796 7.14806 2.83369L8.01346 3.08085ZM3.44067 8.28116L4.05345 7.62199C4.02695 7.59735 4.00521 7.57213 3.98902 7.54911C3.97269 7.52589 3.96533 7.50972 3.9628 7.50301C3.9604 7.49667 3.96424 7.50406 3.96497 7.52382C3.96576 7.54537 3.96239 7.57248 3.95253 7.59921L3.10815 7.28771L2.26378 6.97621C1.94954 7.82799 2.43041 8.57081 2.82789 8.94032L3.44067 8.28116ZM5.33957 15.2563L5.17815 14.3709C5.14688 14.3766 5.11888 14.3788 5.0959 14.3786C5.07277 14.3784 5.05917 14.3758 5.05444 14.3747C5.05003 14.3736 5.05754 14.3748 5.07227 14.3835C5.08804 14.3927 5.10679 14.4074 5.12345 14.4275L4.43127 15.0027L3.73909 15.5779C4.25036 16.1932 5.01462 16.2304 5.50099 16.1417L5.33957 15.2563ZM8.64423 17.6219L8.85185 16.7462C8.87735 16.7522 8.89901 16.7625 8.91441 16.7726C8.92878 16.7821 8.93325 16.7883 8.93034 16.7849C8.92723 16.7812 8.91889 16.7701 8.90844 16.7494C8.89806 16.7288 8.8876 16.7027 8.87885 16.672L8.01345 16.9192L7.14806 17.1663C7.28393 17.6421 7.65646 18.3126 8.4366 18.4976L8.64423 17.6219ZM12.8998 16.9192L12.0345 16.672C12.0257 16.7026 12.0152 16.7287 12.0049 16.7493C11.9944 16.77 11.9861 16.7811 11.9829 16.7849C11.98 16.7883 11.9845 16.7821 11.9988 16.7726C12.0142 16.7625 12.0359 16.7522 12.0614 16.7462L12.269 17.6219L12.4767 18.4976C13.2568 18.3126 13.6293 17.6421 13.7652 17.1664L12.8998 16.9192ZM16.4809 15.0031L15.789 14.4275C15.8057 14.4075 15.8244 14.3928 15.8401 14.3836C15.8548 14.375 15.8622 14.3738 15.8578 14.3749C15.8531 14.3761 15.8395 14.3786 15.8164 14.3788C15.7935 14.379 15.7656 14.3768 15.7344 14.3711L15.573 15.2566L15.4117 16.142C15.8982 16.2306 16.6617 16.1931 17.1728 15.5787L16.4809 15.0031ZM17.2679 6.13031L16.4861 6.57613C16.4694 6.54675 16.4603 6.5113 16.4596 6.481C16.4589 6.45485 16.4646 6.44818 16.4586 6.46357C16.4525 6.47927 16.438 6.50758 16.4101 6.54318C16.3825 6.57839 16.3478 6.61275 16.3099 6.64187L16.8581 7.35563L17.4063 8.06939C17.7065 7.83886 17.9823 7.51103 18.1359 7.11673C18.2946 6.70918 18.3341 6.18313 18.0498 5.68448L17.2679 6.13031ZM3.10798 12.7111L3.95239 12.3996C3.96225 12.4264 3.96562 12.4535 3.96483 12.4751C3.9641 12.4949 3.96025 12.5023 3.96263 12.496C3.96514 12.4894 3.97247 12.4732 3.98876 12.4501C4.00491 12.4271 4.02659 12.402 4.05304 12.3774L3.44047 11.7181L2.82789 11.0587C2.43016 11.4282 1.9495 12.1709 2.26358 13.0225L3.10798 12.7111ZM15.573 4.7427L15.7349 5.62802C15.7661 5.62233 15.794 5.62014 15.8168 5.62033C15.8399 5.62052 15.8534 5.62306 15.8581 5.6242C15.8625 5.62527 15.855 5.62407 15.8403 5.61548C15.8246 5.60629 15.806 5.59164 15.7893 5.57168L16.481 4.99588L17.1728 4.42008C16.6615 3.80588 15.898 3.76836 15.4112 3.85738L15.573 4.7427ZM4.43122 4.99632L5.1234 5.57155C5.10673 5.5916 5.08797 5.60635 5.07217 5.6156C5.05741 5.62425 5.04986 5.62547 5.05422 5.62441C5.0589 5.62328 5.07245 5.62072 5.09552 5.62054C5.11843 5.62035 5.14637 5.62255 5.17757 5.62825L5.33954 4.74295L5.5015 3.85764C5.01485 3.76861 4.25041 3.80575 3.73904 4.4211L4.43122 4.99632ZM17.2554 11.3248L16.8594 12.133C16.9026 12.1541 16.9435 12.181 16.9776 12.21C17.0121 12.2394 17.0319 12.2643 17.0409 12.2784C17.0498 12.2922 17.0429 12.2866 17.0383 12.2607C17.033 12.2307 17.0348 12.1941 17.0453 12.1619L17.9004 12.4426L18.7555 12.7233C18.9345 12.1783 18.7909 11.6711 18.5543 11.3037C18.3254 10.9484 17.9903 10.6826 17.6513 10.5166L17.2554 11.3248ZM12.269 2.37811L12.0614 3.25383C12.0359 3.24778 12.0142 3.23747 11.9988 3.22736C11.9845 3.21792 11.98 3.21167 11.9829 3.21515C11.986 3.21888 11.9944 3.22997 12.0048 3.25069C12.0152 3.27127 12.0257 3.29743 12.0345 3.32808L12.8998 3.08086L13.7652 2.83364C13.6293 2.35795 13.2568 1.68737 12.4766 1.50239L12.269 2.37811Z" fill="#070A1C" style="fill:#070A1C;fill:color(display-p3 0.0275 0.0392 0.1098);fill-opacity:1;"/>
</svg>
