<svg width="21" height="20" viewBox="0 0 21 20" fill="none" xmlns="http://www.w3.org/2000/svg">
<path d="M12.7173 10C12.7173 10.4326 12.589 10.8556 12.3486 11.2153C12.1083 11.575 11.7666 11.8554 11.3669 12.021C10.9672 12.1866 10.5274 12.2299 10.103 12.1455C9.67869 12.0611 9.28892 11.8527 8.98299 11.5468C8.67706 11.2409 8.46872 10.8511 8.38432 10.4268C8.29991 10.0024 8.34323 9.56259 8.5088 9.16288C8.67437 8.76317 8.95474 8.42153 9.31448 8.18116C9.67421 7.9408 10.0971 7.8125 10.5298 7.8125C11.1099 7.8125 11.6663 8.04297 12.0766 8.45321C12.4868 8.86344 12.7173 9.41984 12.7173 10ZM10.5298 5.9375C10.9624 5.9375 11.3854 5.80921 11.7451 5.56884C12.1048 5.32848 12.3852 4.98683 12.5508 4.58712C12.7163 4.18741 12.7597 3.74757 12.6753 3.32324C12.5908 2.89891 12.3825 2.50913 12.0766 2.2032C11.7707 1.89728 11.3809 1.68894 10.9565 1.60453C10.5322 1.52013 10.0924 1.56345 9.69267 1.72901C9.29295 1.89458 8.95131 2.17496 8.71095 2.53469C8.47058 2.89442 8.34229 3.31735 8.34229 3.75C8.34229 4.33016 8.57275 4.88656 8.98299 5.2968C9.39323 5.70703 9.94963 5.9375 10.5298 5.9375ZM10.5298 14.0625C10.0971 14.0625 9.67421 14.1908 9.31448 14.4312C8.95474 14.6715 8.67437 15.0132 8.5088 15.4129C8.34323 15.8126 8.29991 16.2524 8.38432 16.6768C8.46872 17.1011 8.67706 17.4909 8.98299 17.7968C9.28892 18.1027 9.67869 18.3111 10.103 18.3955C10.5274 18.4799 10.9672 18.4366 11.3669 18.271C11.7666 18.1054 12.1083 17.825 12.3486 17.4653C12.589 17.1056 12.7173 16.6826 12.7173 16.25C12.7173 15.6698 12.4868 15.1134 12.0766 14.7032C11.6663 14.293 11.1099 14.0625 10.5298 14.0625Z" fill="#81818D" style="fill:#81818D;fill:color(display-p3 0.5059 0.5059 0.5529);fill-opacity:1;"/>
</svg>
