<svg width="41" height="40" viewBox="0 0 41 40" fill="none" xmlns="http://www.w3.org/2000/svg">
<rect x="1.16406" y="0.5" width="39" height="39" rx="19.5" stroke="#543C52" style="stroke:#543C52;stroke:color(display-p3 0.3294 0.2353 0.3216);stroke-opacity:1;"/>
<path d="M12.3301 15.0001C12.3301 14.116 12.6813 13.2682 13.3064 12.6431C13.9315 12.0179 14.7794 11.6667 15.6634 11.6667H25.6634C26.5475 11.6667 27.3953 12.0179 28.0204 12.6431C28.6456 13.2682 28.9967 14.116 28.9967 15.0001V25.0001C28.9967 25.8841 28.6456 26.732 28.0204 27.3571C27.3953 27.9822 26.5475 28.3334 25.6634 28.3334H15.6634C14.7794 28.3334 13.9315 27.9822 13.3064 27.3571C12.6813 26.732 12.3301 25.8841 12.3301 25.0001V15.0001Z" stroke="#543C52" style="stroke:#543C52;stroke:color(display-p3 0.3294 0.2353 0.3216);stroke-opacity:1;" stroke-width="1.66667" stroke-linecap="round" stroke-linejoin="round"/>
<path d="M17.7474 19.1667C18.898 19.1667 19.8307 18.2339 19.8307 17.0833C19.8307 15.9327 18.898 15 17.7474 15C16.5968 15 15.6641 15.9327 15.6641 17.0833C15.6641 18.2339 16.5968 19.1667 17.7474 19.1667Z" stroke="#543C52" style="stroke:#543C52;stroke:color(display-p3 0.3294 0.2353 0.3216);stroke-opacity:1;" stroke-width="1.66667" stroke-linecap="round" stroke-linejoin="round"/>
<path d="M22.7691 20.5176L15.6641 28.3334H25.7749C26.6296 28.3334 27.4492 27.9939 28.0535 27.3896C28.6579 26.7852 28.9974 25.9656 28.9974 25.1109V25.0001C28.9974 24.6118 28.8516 24.4626 28.5891 24.1751L25.2307 20.5126C25.0742 20.3418 24.8838 20.2056 24.6717 20.1126C24.4596 20.0195 24.2304 19.9717 23.9988 19.9722C23.7672 19.9726 23.5382 20.0214 23.3265 20.1153C23.1147 20.2092 22.9249 20.3462 22.7691 20.5176Z" stroke="#543C52" style="stroke:#543C52;stroke:color(display-p3 0.3294 0.2353 0.3216);stroke-opacity:1;" stroke-width="1.66667" stroke-linecap="round" stroke-linejoin="round"/>
</svg>
