<svg width="41" height="40" viewBox="0 0 41 40" fill="none" xmlns="http://www.w3.org/2000/svg">
<rect x="1.16406" y="0.5" width="39" height="39" rx="19.5" stroke="#543C52" style="stroke:#543C52;stroke:color(display-p3 0.3294 0.2353 0.3216);stroke-opacity:1;"/>
<path d="M20.6641 11.3301C22.9627 11.3326 25.1666 12.2467 26.792 13.8721C28.4174 15.4974 29.3314 17.7014 29.334 20C29.334 21.7146 28.8256 23.3907 27.873 24.8164C26.9204 26.2422 25.5657 27.3536 23.9814 28.0098C22.3973 28.6659 20.6543 28.8374 18.9727 28.5029C17.2909 28.1684 15.7457 27.3434 14.5332 26.1309C13.3207 24.9184 12.4957 23.3732 12.1611 21.6914C11.8266 20.0097 11.9982 18.2668 12.6543 16.6826C13.3105 15.0984 14.4219 13.7437 15.8477 12.791C17.1842 11.8981 18.7407 11.3953 20.3428 11.3359L20.6641 11.3301ZM23.2764 13.6934C22.029 13.1767 20.6563 13.0413 19.332 13.3047C18.0079 13.5681 16.7916 14.2182 15.8369 15.1729C14.8823 16.1275 14.2322 17.3438 13.9688 18.668C13.7053 19.9922 13.8407 21.3649 14.3574 22.6123C14.8741 23.8596 15.7486 24.9257 16.8711 25.6758C17.9937 26.4259 19.3139 26.8262 20.6641 26.8262C22.474 26.8242 24.2095 26.105 25.4893 24.8252C26.7691 23.5454 27.4883 21.8099 27.4902 20C27.4902 18.6498 27.09 17.3297 26.3398 16.207C25.5897 15.0846 24.5236 14.21 23.2764 13.6934ZM24.0176 21.0078C24.139 21.0233 24.2563 21.0628 24.3623 21.124C24.4682 21.1852 24.5607 21.2669 24.6348 21.3643C24.7089 21.4617 24.7633 21.5728 24.7939 21.6914C24.8245 21.81 24.8311 21.9335 24.8135 22.0547C24.7958 22.1758 24.7546 22.2926 24.6914 22.3975H24.6904C23.8105 23.9221 22.3413 24.7959 20.6641 24.7959C19.0915 24.7959 17.7039 24.0289 16.8096 22.6758L16.6377 22.3975C16.5213 22.1864 16.4922 21.9383 16.5566 21.7061C16.6212 21.4734 16.7743 21.2751 16.9834 21.1543C17.1925 21.0335 17.441 20.9992 17.6748 21.0596C17.9082 21.1198 18.1088 21.2693 18.2334 21.4756V21.4766C18.5508 22.0256 19.2915 22.9521 20.6641 22.9521C22.0366 22.9521 22.7774 22.0248 23.0947 21.4766V21.4756C23.154 21.3685 23.234 21.2741 23.3301 21.1982C23.426 21.1225 23.5365 21.067 23.6543 21.0342C23.7723 21.0014 23.8961 20.9924 24.0176 21.0078ZM18.001 17.165C18.2424 17.2131 18.4646 17.3318 18.6387 17.5059C18.8126 17.6798 18.9314 17.9014 18.9795 18.1426C19.0275 18.384 19.0024 18.6349 18.9082 18.8623C18.814 19.0896 18.6548 19.2842 18.4502 19.4209C18.2456 19.5576 18.0048 19.6298 17.7588 19.6299C17.4288 19.6299 17.1123 19.4989 16.8789 19.2656C16.6455 19.0322 16.5137 18.7158 16.5137 18.3857C16.5137 18.1396 16.5869 17.899 16.7236 17.6943C16.8604 17.4897 17.0549 17.3305 17.2822 17.2363C17.5095 17.1422 17.7597 17.1171 18.001 17.165ZM23.5693 17.1416C23.8993 17.1416 24.2158 17.2726 24.4492 17.5059C24.6826 17.7392 24.8144 18.0557 24.8145 18.3857C24.8145 18.6319 24.7412 18.8725 24.6045 19.0771C24.4678 19.2818 24.2732 19.441 24.0459 19.5352C23.8186 19.6293 23.5685 19.6544 23.3271 19.6064C23.0857 19.5584 22.8635 19.4397 22.6895 19.2656C22.5156 19.0917 22.3967 18.8701 22.3486 18.6289C22.3006 18.3875 22.3257 18.1366 22.4199 17.9092C22.5141 17.6819 22.6734 17.4873 22.8779 17.3506C23.0825 17.2139 23.3233 17.1417 23.5693 17.1416Z" fill="#543C52" stroke="#543C52" style="fill:#543C52;fill:color(display-p3 0.3294 0.2353 0.3216);fill-opacity:1;stroke:#543C52;stroke:color(display-p3 0.3294 0.2353 0.3216);stroke-opacity:1;" stroke-width="0.09375"/>
</svg>
