<svg width="41" height="40" viewBox="0 0 41 40" fill="none" xmlns="http://www.w3.org/2000/svg">
<rect x="1.16406" y="0.5" width="39" height="39" rx="19.5" fill="#543C52" style="fill:#543C52;fill:color(display-p3 0.3294 0.2353 0.3216);fill-opacity:1;"/>
<rect x="1.16406" y="0.5" width="39" height="39" rx="19.5" stroke="#543C52" style="stroke:#543C52;stroke:color(display-p3 0.3294 0.2353 0.3216);stroke-opacity:1;"/>
<path d="M27.9937 18.6302L14.864 11.138C14.5872 10.983 14.2697 10.9158 13.9538 10.9456C13.6379 10.9754 13.3385 11.1006 13.0956 11.3047C12.8526 11.5087 12.6775 11.7819 12.5935 12.0879C12.5096 12.3939 12.5208 12.7182 12.6257 13.0177L14.9835 19.999L12.6257 26.9802C12.5428 27.2157 12.5176 27.4677 12.5521 27.715C12.5866 27.9623 12.6799 28.1977 12.8241 28.4015C12.9683 28.6053 13.1593 28.7716 13.381 28.8864C13.6027 29.0012 13.8487 29.0613 14.0984 29.0615C14.3669 29.0609 14.6308 28.9915 14.8648 28.8599L14.8718 28.8552L27.9968 21.3497C28.2375 21.2135 28.4377 21.0159 28.577 20.777C28.7162 20.5381 28.7896 20.2665 28.7896 19.99C28.7896 19.7134 28.7162 19.4419 28.577 19.203C28.4377 18.9641 28.2375 18.7664 27.9968 18.6302H27.9937ZM14.6601 26.8162L16.646 20.9365H20.9734C21.222 20.9365 21.4605 20.8377 21.6363 20.6619C21.8121 20.4861 21.9109 20.2476 21.9109 19.999C21.9109 19.7503 21.8121 19.5119 21.6363 19.3361C21.4605 19.1602 21.222 19.0615 20.9734 19.0615H16.646L14.6593 13.1802L26.5937 19.9904L14.6601 26.8162Z" fill="white" style="fill:white;fill-opacity:1;"/>
</svg>
