<svg width="21" height="20" viewBox="0 0 21 20" fill="none" xmlns="http://www.w3.org/2000/svg">
<g clip-path="url(#clip0_4341_5624)">
<path d="M9.06667 8.23329C8.82104 8.46217 8.62404 8.73817 8.4874 9.04483C8.35076 9.3515 8.27728 9.68254 8.27136 10.0182C8.26544 10.3539 8.32719 10.6873 8.45292 10.9986C8.57866 11.3099 8.76581 11.5927 9.0032 11.8301C9.2406 12.0675 9.52338 12.2546 9.83467 12.3804C10.146 12.5061 10.4794 12.5679 10.8151 12.5619C11.1508 12.556 11.4818 12.4825 11.7885 12.3459C12.0951 12.2093 12.3711 12.0122 12.6 11.7666M9.775 4.23329C10.1261 4.18955 10.4795 4.16729 10.8333 4.16663C16.6667 4.16663 19.1667 9.99996 19.1667 9.99996C18.7941 10.7976 18.3268 11.5474 17.775 12.2333M6.34167 5.50829C4.68438 6.63715 3.35823 8.18768 2.5 9.99996C2.5 9.99996 5 15.8333 10.8333 15.8333C12.4299 15.8376 13.9923 15.3709 15.325 14.4916M2.5 1.66663L19.1667 18.3333" stroke="#81818D" style="stroke:#81818D;stroke:color(display-p3 0.5059 0.5059 0.5529);stroke-opacity:1;" stroke-width="2" stroke-linecap="round" stroke-linejoin="round"/>
</g>
<defs>
<clipPath id="clip0_4341_5624">
<rect width="20" height="20" fill="white" style="fill:white;fill-opacity:1;" transform="translate(0.833984)"/>
</clipPath>
</defs>
</svg>
