<svg width="24" height="18" viewBox="0 0 24 18" fill="none" xmlns="http://www.w3.org/2000/svg">
<path d="M0.370117 4.66852H7.19365V8.37638H2.3197C1.24047 8.37638 0.370117 7.53369 0.370117 6.48874V4.66852Z" fill="#543C52" style="fill:#543C52;fill:color(display-p3 0.3294 0.2353 0.3216);fill-opacity:1;"/>
<path d="M5.24402 15.809H0.370074L0.370074 12.1011H7.1936L7.1936 13.9213C7.1936 14.9663 6.32326 15.809 5.24402 15.809Z" fill="#543C52" style="fill:#543C52;fill:color(display-p3 0.3294 0.2353 0.3216);fill-opacity:1;"/>
<path d="M7.29805 8.17413C7.26323 8.17413 7.22842 8.17413 7.1936 8.17413V11.8989C7.22842 11.8989 7.26323 11.8989 7.29805 11.8989C10.4139 11.8989 12.9379 14.3595 12.9379 17.3595C12.9379 20.3595 12.9379 17.4269 12.9379 17.4606H16.7848C16.7848 17.4269 16.7848 17.3932 16.7848 17.3595C16.7848 12.3033 12.5375 8.17413 7.29805 8.17413Z" fill="#543C52" style="fill:#543C52;fill:color(display-p3 0.3294 0.2353 0.3216);fill-opacity:1;"/>
<path d="M9.31725 0.539307C10.5009 0.539307 11.4409 1.46627 11.4409 2.59549C11.4409 3.74155 10.4835 4.65167 9.31725 4.65167H7.1936V2.59549C7.1936 1.44942 8.15099 0.539307 9.31725 0.539307Z" fill="#543C52" style="fill:#543C52;fill:color(display-p3 0.3294 0.2353 0.3216);fill-opacity:1;"/>
<path d="M13.0424 6.15168H13.1294C14.1912 6.15168 15.4619 6.01684 16.75 5.79774C18.0207 5.57864 19.274 5.27527 20.2662 4.93819C20.3011 4.93819 20.3185 4.92134 20.3533 4.90448C20.2314 4.04493 19.7963 3.2528 19.1174 2.66291C18.4385 2.08988 17.5682 1.76965 16.663 1.76965C14.8353 1.76965 13.3209 3.05055 13.0075 4.71909C12.9727 4.92134 12.9553 5.14044 12.9553 5.35954C12.9553 5.57864 12.9553 5.46066 12.9553 5.49437C12.9553 5.71347 12.9901 5.93257 13.0424 6.13482V6.15168Z" fill="#543C52" style="fill:#543C52;fill:color(display-p3 0.3294 0.2353 0.3216);fill-opacity:1;"/>
<path d="M23.0688 4.28087C22.9818 3.80896 21.8677 3.55615 20.2315 3.55615C20.3359 3.7584 20.423 3.96065 20.51 4.17975C20.51 4.21346 20.5274 4.24716 20.5448 4.28087C21.3107 4.28087 21.8155 4.36514 22.094 4.44941C21.8503 4.61795 21.4152 4.85391 20.6841 5.12357L20.4404 5.20784L20.3533 5.24155C19.3786 5.57862 18.1949 5.86514 16.959 6.08424C16.9068 6.08424 16.8371 6.1011 16.7849 6.11795C16.7153 6.11795 16.6457 6.1348 16.576 6.15166C15.375 6.35391 14.1913 6.45503 13.1817 6.47188H13.112H12.7813C12.0154 6.47188 11.5106 6.38761 11.2321 6.30334C11.4758 6.1348 11.911 5.89885 12.6421 5.62919C12.6421 5.59548 12.6421 5.56177 12.6421 5.52806C12.6421 5.4775 12.6421 5.42694 12.6421 5.37638C12.6421 5.20784 12.6421 5.02244 12.6769 4.8539C11.1277 5.39323 10.1703 5.98312 10.2573 6.47188C10.3443 6.9775 11.6325 7.23031 13.4602 7.17975C13.5298 7.17975 13.582 7.17975 13.6517 7.17975C14.522 7.14604 15.4968 7.04492 16.489 6.89323C16.5586 6.89323 16.6283 6.87638 16.6979 6.85952C16.7675 6.85952 16.8371 6.84267 16.9068 6.82582C16.9764 6.82582 17.046 6.80896 17.1156 6.79211C17.1853 6.79211 17.2549 6.7584 17.3245 6.7584C18.3167 6.57301 19.2741 6.33705 20.0922 6.08424C20.1445 6.06739 20.2141 6.05053 20.2663 6.03368C22.007 5.4775 23.121 4.8202 23.034 4.29773L23.0688 4.28087Z" fill="#543C52" style="fill:#543C52;fill:color(display-p3 0.3294 0.2353 0.3216);fill-opacity:1;"/>
<path d="M16.9763 7.11237C15.8275 7.31462 14.6786 7.43259 13.6516 7.4663C14.3479 8.39327 15.4619 8.94945 16.6456 8.94945C18.3341 8.94945 19.7615 7.85394 20.214 6.35394C19.2392 6.65731 18.1252 6.91012 16.9763 7.11237Z" fill="#543C52" style="fill:#543C52;fill:color(display-p3 0.3294 0.2353 0.3216);fill-opacity:1;"/>
</svg>
