<svg width="21" height="20" viewBox="0 0 21 20" fill="none" xmlns="http://www.w3.org/2000/svg">
<path d="M17.523 8.63009L4.39331 1.13791C4.11648 0.982835 3.799 0.915722 3.4831 0.945492C3.1672 0.975263 2.86784 1.10051 2.62486 1.30456C2.38187 1.50862 2.20677 1.78182 2.12285 2.08782C2.03892 2.39382 2.05015 2.71813 2.15503 3.01759L4.51285 9.99884L2.15503 16.9801C2.07214 17.2156 2.04689 17.4676 2.08141 17.7148C2.11593 17.9621 2.2092 18.1975 2.35342 18.4014C2.49763 18.6052 2.6886 18.7715 2.9103 18.8863C3.13201 19.0011 3.37801 19.0611 3.62769 19.0613C3.89619 19.0608 4.16006 18.9914 4.39409 18.8598L4.40113 18.8551L17.5261 11.3496C17.7668 11.2134 17.967 11.0158 18.1063 10.7769C18.2455 10.538 18.3189 10.2664 18.3189 9.98986C18.3189 9.71333 18.2455 9.44175 18.1063 9.20286C17.967 8.96396 17.7668 8.76631 17.5261 8.63009H17.523ZM4.18941 16.816L6.17534 10.9363H10.5027C10.7513 10.9363 10.9898 10.8376 11.1656 10.6618C11.3414 10.4859 11.4402 10.2475 11.4402 9.99884C11.4402 9.7502 11.3414 9.51175 11.1656 9.33593C10.9898 9.16011 10.7513 9.06134 10.5027 9.06134H6.17534L4.18863 3.18009L16.123 9.99025L4.18941 16.816Z" fill="white" style="fill:white;fill-opacity:1;"/>
</svg>
