<svg width="21" height="20" viewBox="0 0 21 20" fill="none" xmlns="http://www.w3.org/2000/svg">
<path d="M2.33203 5.00002C2.33203 4.11597 2.68322 3.26812 3.30834 2.643C3.93346 2.01788 4.78131 1.66669 5.66536 1.66669H15.6654C16.5494 1.66669 17.3973 2.01788 18.0224 2.643C18.6475 3.26812 18.9987 4.11597 18.9987 5.00002V15C18.9987 15.8841 18.6475 16.7319 18.0224 17.357C17.3973 17.9822 16.5494 18.3334 15.6654 18.3334H5.66536C4.78131 18.3334 3.93346 17.9822 3.30834 17.357C2.68322 16.7319 2.33203 15.8841 2.33203 15V5.00002Z" stroke="#070A1C" style="stroke:#070A1C;stroke:color(display-p3 0.0275 0.0392 0.1098);stroke-opacity:1;" stroke-width="1.66667" stroke-linecap="round" stroke-linejoin="round"/>
<path d="M7.7474 9.16667C8.89799 9.16667 9.83073 8.23393 9.83073 7.08333C9.83073 5.93274 8.89799 5 7.7474 5C6.5968 5 5.66406 5.93274 5.66406 7.08333C5.66406 8.23393 6.5968 9.16667 7.7474 9.16667Z" stroke="#070A1C" style="stroke:#070A1C;stroke:color(display-p3 0.0275 0.0392 0.1098);stroke-opacity:1;" stroke-width="1.66667" stroke-linecap="round" stroke-linejoin="round"/>
<path d="M12.7691 10.5175L5.66406 18.3334H15.7749C16.6296 18.3334 17.4492 17.9938 18.0535 17.3895C18.6579 16.7852 18.9974 15.9655 18.9974 15.1109V15C18.9974 14.6117 18.8516 14.4625 18.5891 14.175L15.2307 10.5125C15.0742 10.3418 14.8838 10.2055 14.6717 10.1125C14.4596 10.0195 14.2304 9.97164 13.9988 9.97211C13.7672 9.97258 13.5382 10.0213 13.3265 10.1152C13.1147 10.2091 12.9249 10.3462 12.7691 10.5175Z" stroke="#070A1C" style="stroke:#070A1C;stroke:color(display-p3 0.0275 0.0392 0.1098);stroke-opacity:1;" stroke-width="1.66667" stroke-linecap="round" stroke-linejoin="round"/>
</svg>
