<svg width="21" height="21" viewBox="0 0 21 21" fill="none" xmlns="http://www.w3.org/2000/svg">
<path d="M2.13672 5.50008C2.13672 4.61603 2.48791 3.76818 3.11303 3.14306C3.73815 2.51794 4.586 2.16675 5.47005 2.16675H15.4701C16.3541 2.16675 17.202 2.51794 17.8271 3.14306C18.4522 3.76818 18.8034 4.61603 18.8034 5.50008V15.5001C18.8034 16.3841 18.4522 17.232 17.8271 17.8571C17.202 18.4822 16.3541 18.8334 15.4701 18.8334H5.47005C4.586 18.8334 3.73815 18.4822 3.11303 17.8571C2.48791 17.232 2.13672 16.3841 2.13672 15.5001V5.50008Z" stroke="#81818D" style="stroke:#81818D;stroke:color(display-p3 0.5059 0.5059 0.5529);stroke-opacity:1;" stroke-width="1.66667" stroke-linecap="round" stroke-linejoin="round"/>
<path d="M7.55404 9.66679C8.70463 9.66679 9.63737 8.73405 9.63737 7.58346C9.63737 6.43286 8.70463 5.50012 7.55404 5.50012C6.40344 5.50012 5.4707 6.43286 5.4707 7.58346C5.4707 8.73405 6.40344 9.66679 7.55404 9.66679Z" stroke="#81818D" style="stroke:#81818D;stroke:color(display-p3 0.5059 0.5059 0.5529);stroke-opacity:1;" stroke-width="1.66667" stroke-linecap="round" stroke-linejoin="round"/>
<path d="M12.5757 11.0176L5.4707 18.8334H15.5815C16.4362 18.8334 17.2559 18.4939 17.8602 17.8896C18.4645 17.2852 18.804 16.4656 18.804 15.6109V15.5001C18.804 15.1118 18.6582 14.9626 18.3957 14.6751L15.0374 11.0126C14.8808 10.8418 14.6905 10.7056 14.4783 10.6126C14.2662 10.5195 14.0371 10.4717 13.8054 10.4722C13.5738 10.4726 13.3448 10.5214 13.1331 10.6153C12.9214 10.7092 12.7315 10.8462 12.5757 11.0176Z" stroke="#81818D" style="stroke:#81818D;stroke:color(display-p3 0.5059 0.5059 0.5529);stroke-opacity:1;" stroke-width="1.66667" stroke-linecap="round" stroke-linejoin="round"/>
</svg>
