<svg width="21" height="20" viewBox="0 0 21 20" fill="none" xmlns="http://www.w3.org/2000/svg">
<path d="M4.66667 15.8333H5.85417L14 7.6875L12.8125 6.5L4.66667 14.6458V15.8333ZM3 17.5V13.9583L14 2.97917C14.1667 2.82639 14.3508 2.70833 14.5525 2.625C14.7542 2.54167 14.9658 2.5 15.1875 2.5C15.4092 2.5 15.6244 2.54167 15.8333 2.625C16.0422 2.70833 16.2228 2.83333 16.375 3L17.5208 4.16667C17.6875 4.31944 17.8092 4.5 17.8858 4.70833C17.9625 4.91667 18.0006 5.125 18 5.33333C18 5.55556 17.9619 5.7675 17.8858 5.96917C17.8097 6.17083 17.6881 6.35472 17.5208 6.52083L6.54167 17.5H3ZM13.3958 7.10417L12.8125 6.5L14 7.6875L13.3958 7.10417Z" fill="#543C52" style="fill:#543C52;fill:color(display-p3 0.3294 0.2353 0.3216);fill-opacity:1;"/>
</svg>
