<svg width="21" height="20" viewBox="0 0 21 20" fill="none" xmlns="http://www.w3.org/2000/svg">
<g clip-path="url(#clip0_4341_5602)">
<g clip-path="url(#clip1_4341_5602)">
<path d="M2.5 9.99996C2.5 9.99996 5 4.16663 10.8333 4.16663C16.6667 4.16663 19.1667 9.99996 19.1667 9.99996C19.1667 9.99996 16.6667 15.8333 10.8333 15.8333C5 15.8333 2.5 9.99996 2.5 9.99996Z" stroke="#81818D" style="stroke:#81818D;stroke:color(display-p3 0.5059 0.5059 0.5529);stroke-opacity:1;" stroke-width="2" stroke-linecap="round" stroke-linejoin="round"/>
<path d="M10.8333 12.5C12.214 12.5 13.3333 11.3807 13.3333 9.99996C13.3333 8.61925 12.214 7.49996 10.8333 7.49996C9.45262 7.49996 8.33333 8.61925 8.33333 9.99996C8.33333 11.3807 9.45262 12.5 10.8333 12.5Z" stroke="#81818D" style="stroke:#81818D;stroke:color(display-p3 0.5059 0.5059 0.5529);stroke-opacity:1;" stroke-width="2" stroke-linecap="round" stroke-linejoin="round"/>
</g>
</g>
<defs>
<clipPath id="clip0_4341_5602">
<rect width="20" height="20" fill="white" style="fill:white;fill-opacity:1;" transform="translate(0.833984)"/>
</clipPath>
<clipPath id="clip1_4341_5602">
<rect width="20" height="20" fill="white" style="fill:white;fill-opacity:1;" transform="translate(0.833984)"/>
</clipPath>
</defs>
</svg>
