<svg width="41" height="40" viewBox="0 0 41 40" fill="none" xmlns="http://www.w3.org/2000/svg">
<rect x="1.02979" y="0.5" width="39" height="39" rx="19.5" stroke="#543C52" style="stroke:#543C52;stroke:color(display-p3 0.3294 0.2353 0.3216);stroke-opacity:1;"/>
<path d="M20.5298 11.3301C22.8284 11.3326 25.0323 12.2467 26.6577 13.8721C28.2831 15.4974 29.1971 17.7014 29.1997 20L29.1938 20.3213C29.1384 21.8168 28.6965 23.2726 27.9116 24.5469L27.7388 24.8164C26.8457 26.153 25.5997 27.2138 24.1421 27.8818L23.8472 28.0098C22.3622 28.6248 20.7376 28.8148 19.1548 28.5605L18.8384 28.5029C17.1566 28.1684 15.6114 27.3434 14.3989 26.1309C13.2622 24.9941 12.466 23.5649 12.0952 22.0049L12.0269 21.6914C11.7133 20.1148 11.8446 18.4844 12.4028 16.9814L12.52 16.6826C13.1352 15.1974 14.1504 13.9142 15.4497 12.9746L15.7134 12.791C17.0499 11.8981 18.6064 11.3953 20.2085 11.3359L20.5298 11.3301ZM23.1421 13.6934C21.8947 13.1767 20.522 13.0413 19.1978 13.3047C17.8736 13.5681 16.6573 14.2182 15.7026 15.1729C14.748 16.1275 14.0979 17.3438 13.8345 18.668C13.5875 19.9094 13.6908 21.1935 14.1304 22.377L14.2231 22.6123C14.7076 23.7819 15.5066 24.7924 16.5298 25.5322L16.7368 25.6758C17.7892 26.379 19.0153 26.7755 20.2769 26.8223L20.5298 26.8262C22.3397 26.8242 24.0752 26.105 25.355 24.8252C26.6348 23.5454 27.354 21.8099 27.356 20L27.3521 19.7471C27.3084 18.5695 26.9603 17.4232 26.3423 16.4199L26.2056 16.207C25.5023 15.1546 24.5213 14.3199 23.3735 13.7939L23.1421 13.6934ZM23.8833 21.0078C23.9743 21.0194 24.0627 21.0445 24.146 21.082L24.228 21.124C24.3339 21.1852 24.4265 21.2669 24.5005 21.3643C24.556 21.4373 24.6008 21.5178 24.6323 21.6035L24.6597 21.6914C24.6827 21.7805 24.6922 21.8723 24.688 21.9639L24.6792 22.0547C24.666 22.1455 24.6393 22.2338 24.6001 22.3164L24.5571 22.3975H24.5562C23.6762 23.9221 22.207 24.7959 20.5298 24.7959C18.9572 24.7959 17.5696 24.0289 16.6753 22.6758L16.5034 22.3975C16.4016 22.2129 16.3659 21.9999 16.4019 21.7939L16.4224 21.7061C16.4789 21.5023 16.6034 21.3251 16.7739 21.2031L16.8491 21.1543C17.0323 21.0485 17.2455 21.0096 17.4526 21.042L17.5405 21.0596C17.7739 21.1198 17.9745 21.2693 18.0991 21.4756V21.4766C18.4165 22.0256 19.1573 22.9521 20.5298 22.9521C21.7307 22.9521 22.4477 22.2421 22.8208 21.6973L22.9604 21.4766V21.4756C23.0049 21.3952 23.0616 21.3223 23.1274 21.2588L23.1958 21.1982C23.2678 21.1414 23.3479 21.0956 23.4331 21.0625L23.52 21.0342C23.6084 21.0097 23.7002 20.9976 23.7915 21L23.8833 21.0078ZM17.8667 17.165C18.1081 17.2131 18.3303 17.3318 18.5044 17.5059C18.6348 17.6363 18.7337 17.7936 18.7954 17.9658L18.8452 18.1426C18.8812 18.3236 18.8759 18.5099 18.8315 18.6875L18.7739 18.8623C18.6797 19.0896 18.5205 19.2842 18.3159 19.4209C18.1113 19.5576 17.8705 19.6298 17.6245 19.6299C17.3357 19.6299 17.0569 19.53 16.8354 19.3486L16.7446 19.2656C16.5112 19.0322 16.3794 18.7158 16.3794 18.3857C16.3794 18.2013 16.4205 18.0199 16.4985 17.8545L16.5894 17.6943C16.6919 17.5408 16.8269 17.4126 16.9839 17.3184L17.1479 17.2363C17.3186 17.1656 17.5021 17.1336 17.6851 17.1426L17.8667 17.165ZM23.4351 17.1416C23.7238 17.1416 24.0027 17.2415 24.2241 17.4229L24.3149 17.5059C24.5483 17.7392 24.6802 18.0557 24.6802 18.3857C24.6802 18.5702 24.6391 18.7516 24.561 18.917L24.4702 19.0771C24.3335 19.2818 24.139 19.441 23.9116 19.5352C23.741 19.6058 23.5575 19.6379 23.3745 19.6289L23.1929 19.6064C23.0119 19.5705 22.8419 19.4946 22.6948 19.3857L22.5552 19.2656C22.4248 19.1352 22.3259 18.9779 22.2642 18.8057L22.2144 18.6289C22.1783 18.4479 22.1836 18.2616 22.228 18.084L22.2856 17.9092C22.3563 17.7388 22.4636 17.5868 22.5991 17.4639L22.7437 17.3506C22.9482 17.2139 23.189 17.1417 23.4351 17.1416Z" fill="#543C52" stroke="#543C52" style="fill:#543C52;fill:color(display-p3 0.3294 0.2353 0.3216);fill-opacity:1;stroke:#543C52;stroke:color(display-p3 0.3294 0.2353 0.3216);stroke-opacity:1;" stroke-width="0.09375"/>
</svg>
