<svg width="12" height="12" viewBox="0 0 12 12" fill="none" xmlns="http://www.w3.org/2000/svg">
<path d="M10.1331 11.3527L6.30859 7.52816L2.4841 11.3527C2.28124 11.5555 2.0061 11.6695 1.71921 11.6695C1.43231 11.6695 1.15717 11.5555 0.954308 11.3527C0.751445 11.1498 0.637477 10.8746 0.637477 10.5878C0.637477 10.3009 0.751445 10.0257 0.954308 9.82285L4.7788 5.99837L0.954308 2.17388C0.751445 1.97101 0.637477 1.69587 0.637478 1.40898C0.637478 1.12209 0.751445 0.846944 0.954308 0.644081C1.15717 0.441217 1.43231 0.32725 1.71921 0.32725C2.0061 0.32725 2.28124 0.441217 2.4841 0.644081L6.30859 4.46857L10.1331 0.64408C10.3359 0.441216 10.6111 0.327249 10.898 0.327249C11.1849 0.327249 11.46 0.441216 11.6629 0.64408C11.8657 0.846943 11.9797 1.12209 11.9797 1.40898C11.9797 1.69587 11.8657 1.97101 11.6629 2.17388L7.83839 5.99837L11.6629 9.82285C11.8657 10.0257 11.9797 10.3009 11.9797 10.5878C11.9797 10.8746 11.8657 11.1498 11.6629 11.3527C11.46 11.5555 11.1849 11.6695 10.898 11.6695C10.6111 11.6695 10.3359 11.5555 10.1331 11.3527Z" fill="black" style="fill:black;fill-opacity:1;"/>
</svg>
