<svg width="25" height="28" viewBox="0 0 25 28" fill="none" xmlns="http://www.w3.org/2000/svg">
<rect x="1.19238" y="3" width="22" height="22" rx="11" fill="white" style="fill:white;fill-opacity:1;"/>
<rect x="1.19238" y="3" width="22" height="22" rx="11" stroke="#543C52" style="stroke:#543C52;stroke:color(display-p3 0.3294 0.2353 0.3216);stroke-opacity:1;" stroke-width="2"/>
<path d="M17.0605 14.8101H13.004V18.8666C13.004 19.0817 12.9186 19.2881 12.7664 19.4402C12.6143 19.5924 12.4079 19.6779 12.1927 19.6779C11.9776 19.6779 11.7712 19.5924 11.6191 19.4402C11.4669 19.2881 11.3815 19.0817 11.3815 18.8666V14.8101H7.32497C7.1098 14.8101 6.90344 14.7246 6.7513 14.5725C6.59915 14.4203 6.51367 14.2139 6.51367 13.9988C6.51367 13.7836 6.59915 13.5773 6.7513 13.4251C6.90344 13.273 7.1098 13.1875 7.32497 13.1875H11.3815V9.131C11.3815 8.91583 11.4669 8.70947 11.6191 8.55733C11.7712 8.40518 11.9776 8.3197 12.1927 8.3197C12.4079 8.3197 12.6143 8.40518 12.7664 8.55733C12.9186 8.70947 13.004 8.91583 13.004 9.131V13.1875H17.0605C17.2757 13.1875 17.4821 13.273 17.6342 13.4251C17.7864 13.5773 17.8718 13.7836 17.8718 13.9988C17.8718 14.2139 17.7864 14.4203 17.6342 14.5725C17.4821 14.7246 17.2757 14.8101 17.0605 14.8101Z" fill="#543C52" style="fill:#543C52;fill:color(display-p3 0.3294 0.2353 0.3216);fill-opacity:1;"/>
</svg>
