<svg width="17" height="18" viewBox="0 0 17 18" fill="none" xmlns="http://www.w3.org/2000/svg">
<path d="M0.984863 9.00004C0.984863 7.00689 1.77664 5.09538 3.18601 3.68601C4.59538 2.27664 6.50689 1.48486 8.50004 1.48486C10.4932 1.48486 12.4047 2.27664 13.8141 3.68601C15.2234 5.09538 16.0152 7.00689 16.0152 9.00004V13.7816C16.0152 14.5782 16.0152 14.9746 15.8969 15.2931C15.8027 15.5454 15.6555 15.7746 15.465 15.965C15.2746 16.1555 15.0454 16.3027 14.7931 16.3969C14.4746 16.5152 14.0772 16.5152 13.2816 16.5152H8.50004C6.50689 16.5152 4.59538 15.7234 3.18601 14.3141C1.77664 12.9047 0.984863 10.9932 0.984863 9.00004Z" stroke="#070A1C" style="stroke:#070A1C;stroke:color(display-p3 0.0275 0.0392 0.1098);stroke-opacity:1;" stroke-width="1.66667"/>
<path d="M5.68164 8.06067H11.318M8.49983 11.8183H11.318" stroke="#070A1C" style="stroke:#070A1C;stroke:color(display-p3 0.0275 0.0392 0.1098);stroke-opacity:1;" stroke-width="1.66667" stroke-linecap="round" stroke-linejoin="round"/>
</svg>
