<svg width="19" height="20" viewBox="0 0 19 20" fill="none" xmlns="http://www.w3.org/2000/svg">
<path d="M7.74977 8.23329C7.50415 8.46217 7.30714 8.73817 7.1705 9.04483C7.03386 9.3515 6.96039 9.68254 6.95447 10.0182C6.94854 10.3539 7.01029 10.6873 7.13603 10.9986C7.26177 11.3099 7.44891 11.5927 7.68631 11.8301C7.92371 12.0675 8.20649 12.2546 8.51778 12.3804C8.82907 12.5061 9.1625 12.5679 9.49818 12.5619C9.83386 12.556 10.1649 12.4825 10.4716 12.3459C10.7782 12.2093 11.0542 12.0122 11.2831 11.7666M8.4581 4.23329C8.8092 4.18955 9.16263 4.16729 9.51644 4.16663C15.3498 4.16663 17.8498 9.99996 17.8498 9.99996C17.4772 10.7976 17.01 11.5474 16.4581 12.2333M5.02477 5.50829C3.36748 6.63715 2.04133 8.18768 1.18311 9.99996C1.18311 9.99996 3.68311 15.8333 9.51644 15.8333C11.113 15.8376 12.6754 15.3709 14.0081 14.4916M1.18311 1.66663L17.8498 18.3333" stroke="#81818D" style="stroke:#81818D;stroke:color(display-p3 0.5059 0.5059 0.5529);stroke-opacity:1;" stroke-width="2" stroke-linecap="round" stroke-linejoin="round"/>
</svg>
