<svg width="21" height="20" viewBox="0 0 21 20" fill="none" xmlns="http://www.w3.org/2000/svg">
<path d="M3.0795 7.49798C3.07941 6.77282 3.25958 6.05901 3.60379 5.42075C3.948 4.78249 4.44547 4.2398 5.05144 3.84149C5.65742 3.44318 6.3529 3.20175 7.07533 3.1389C7.79776 3.07605 8.52448 3.19376 9.19014 3.48144C9.85579 3.76913 10.4395 4.21776 10.8888 4.78699C11.338 5.35622 11.6387 6.02819 11.7639 6.74247C11.889 7.45675 11.8346 8.19094 11.6056 8.87899C11.3766 9.56705 10.9802 10.1874 10.452 10.6842C11.4479 11.1677 12.3126 11.8841 12.9727 12.7728C13.6329 13.6615 14.0692 14.6962 14.2445 15.7892C14.2638 15.9109 14.2589 16.0351 14.2302 16.1549C14.2015 16.2746 14.1494 16.3876 14.0771 16.4872C14.0047 16.5869 13.9134 16.6713 13.8084 16.7356C13.7034 16.8 13.5868 16.8431 13.4651 16.8624C13.3435 16.8816 13.2192 16.8768 13.0995 16.8481C12.9797 16.8193 12.8668 16.7673 12.7672 16.6949C12.6675 16.6225 12.5831 16.5313 12.5187 16.4263C12.4543 16.3213 12.4113 16.2046 12.392 16.083C12.2045 14.9084 11.6044 13.8391 10.6995 13.0671C9.79451 12.2951 8.64399 11.8711 7.4545 11.8711C6.26502 11.8711 5.1145 12.2951 4.20954 13.0671C3.30459 13.8391 2.70449 14.9084 2.517 16.083C2.49763 16.2046 2.45449 16.3212 2.39005 16.4262C2.32561 16.5312 2.24112 16.6224 2.14141 16.6947C2.04171 16.767 1.92873 16.819 1.80894 16.8477C1.68915 16.8763 1.56489 16.8811 1.44325 16.8617C1.32162 16.8424 1.20499 16.7992 1.10002 16.7348C0.995055 16.6703 0.903811 16.5858 0.831497 16.4861C0.759183 16.3864 0.707216 16.2735 0.678564 16.1537C0.649911 16.0339 0.645133 15.9096 0.664503 15.788C0.839218 14.695 1.27525 13.6604 1.93552 12.772C2.5958 11.8837 3.4608 11.1679 4.457 10.6855C4.022 10.2763 3.67538 9.78243 3.43848 9.23424C3.20157 8.68605 3.07941 8.09517 3.0795 7.49798ZM14.3295 5.62298C15.0558 5.62348 15.7663 5.8348 16.3748 6.23129C16.9833 6.62777 17.4636 7.19236 17.7574 7.85654C18.0512 8.52071 18.146 9.25589 18.0301 9.97285C17.9142 10.6898 17.5926 11.3577 17.1045 11.8955C17.8658 12.2726 18.5422 12.801 19.0924 13.4483C19.6426 14.0957 20.055 14.8484 20.3045 15.6605C20.3541 15.8181 20.361 15.986 20.3247 16.1471C20.2884 16.3083 20.2101 16.4569 20.0977 16.578C19.9854 16.6992 19.843 16.7884 19.685 16.8367C19.5271 16.8849 19.3591 16.8906 19.1983 16.853C19.0374 16.8158 18.8893 16.7368 18.7688 16.624C18.6483 16.5111 18.5597 16.3685 18.512 16.2105C18.2876 15.4859 17.8793 14.8319 17.3268 14.3122C16.7742 13.7926 16.0964 13.425 15.3595 13.2455C15.1548 13.1961 14.9727 13.0792 14.8425 12.9136C14.7124 12.7481 14.6417 12.5436 14.642 12.333V11.893C14.6419 11.7184 14.6905 11.5473 14.7824 11.3989C14.8742 11.2505 15.0057 11.1307 15.162 11.053C15.541 10.8652 15.8453 10.5548 16.0256 10.1722C16.2058 9.78956 16.2514 9.35726 16.155 8.94546C16.0586 8.53366 15.8258 8.16656 15.4944 7.90379C15.163 7.64101 14.7524 7.498 14.3295 7.49798C14.0809 7.49798 13.8424 7.3992 13.6666 7.22339C13.4908 7.04757 13.392 6.80912 13.392 6.56048C13.392 6.31184 13.4908 6.07338 13.6666 5.89756C13.8424 5.72175 14.0809 5.62298 14.3295 5.62298ZM7.4545 4.99798C7.12158 4.99045 6.79051 5.04951 6.48072 5.17169C6.17094 5.29387 5.88869 5.47671 5.65054 5.70948C5.41239 5.94225 5.22314 6.22025 5.09391 6.52716C4.96468 6.83407 4.89807 7.1637 4.89798 7.49671C4.8979 7.82972 4.96435 8.15939 5.09343 8.46637C5.2225 8.77334 5.41161 9.05143 5.64964 9.28432C5.88767 9.5172 6.16984 9.70019 6.47956 9.82252C6.78928 9.94486 7.12033 10.0041 7.45325 9.99673C8.10645 9.98228 8.72805 9.7127 9.18497 9.24568C9.64188 8.77866 9.89782 8.15132 9.89798 7.49796C9.89815 6.8446 9.64252 6.21714 9.18584 5.74989C8.72915 5.28264 8.1077 5.01275 7.4545 4.99798Z" fill="#070A1C" style="fill:#070A1C;fill:color(display-p3 0.0275 0.0392 0.1098);fill-opacity:1;"/>
</svg>
