<svg width="146" height="18" viewBox="0 0 146 18" fill="none" xmlns="http://www.w3.org/2000/svg">
<g clip-path="url(#clip0_55_2238)">
<path d="M28.0724 1.382H32.3719L34.3911 11.7977L36.1666 4.23032C36.6715 2.0056 37.7681 1.04492 39.4566 1.04492C41.145 1.04492 42.2243 1.98874 42.7465 4.23032L44.522 11.7977L46.5412 1.382H50.8407L48.0382 14.1236C47.6378 15.9438 46.3845 16.9719 44.6787 16.9719C42.9728 16.9719 41.7717 15.9775 41.3713 14.309L39.4392 6.08425L37.507 14.309C37.1066 15.9775 35.7315 16.9719 34.1997 16.9719C32.6679 16.9719 31.2405 15.9607 30.8401 14.1236L28.0376 1.382H28.0724Z" fill="#543C52" style="fill:#543C52;fill:color(display-p3 0.3294 0.2353 0.3216);fill-opacity:1;"/>
<path d="M51.7632 8.99997C51.7632 4.46626 55.2968 1.06177 60.0489 1.06177C64.801 1.06177 68.3346 4.46626 68.3346 8.99997C68.3346 13.5337 64.801 16.9382 60.0489 16.9382C55.2968 16.9382 51.7632 13.5337 51.7632 8.99997ZM63.9307 8.99997C63.9307 6.74154 62.2596 5.00559 60.0663 5.00559C57.873 5.00559 56.202 6.74154 56.202 8.99997C56.202 11.2584 57.873 12.9944 60.0663 12.9944C62.2596 12.9944 63.9307 11.2584 63.9307 8.99997Z" fill="#543C52" style="fill:#543C52;fill:color(display-p3 0.3294 0.2353 0.3216);fill-opacity:1;"/>
<path d="M70.9111 16.6011V1.38196H77.5084C81.2335 1.38196 84.0708 3.06735 84.0708 6.43814C84.0708 9.80892 82.9045 10.0954 81.0594 10.6516C81.8427 11.1404 82.3649 12.0336 83.0612 13.3988L84.6626 16.6011H79.9802L78.518 13.7359C77.9784 12.6909 77.3691 12.3202 75.9766 12.3202H75.1932V16.6011H70.9111ZM75.2107 5.2078V8.61229C75.1932 8.61229 77.491 8.61229 77.491 8.61229C78.7443 8.61229 79.632 7.93814 79.632 6.85949C79.632 5.78083 78.7443 5.2078 77.5432 5.2078H75.2107Z" fill="#543C52" style="fill:#543C52;fill:color(display-p3 0.3294 0.2353 0.3216);fill-opacity:1;"/>
<path d="M91.7644 12.7584H98.7097V16.5842H91.1899C88.5441 16.5842 87.4648 15.2359 87.4648 13.0954V1.38196H91.7644V12.7584Z" fill="#543C52" style="fill:#543C52;fill:color(display-p3 0.3294 0.2353 0.3216);fill-opacity:1;"/>
<path d="M107.03 16.6011H100.816V1.38196H107.03C112.183 1.38196 115.594 4.43252 115.594 9.0505C115.594 13.6685 112.061 16.6011 107.03 16.6011ZM107.03 5.2078H105.115V12.8763H107.03C109.537 12.8763 111.173 11.3426 111.173 9.0505C111.173 6.75836 109.537 5.22465 107.03 5.22465V5.2078Z" fill="#543C52" style="fill:#543C52;fill:color(display-p3 0.3294 0.2353 0.3216);fill-opacity:1;"/>
<path d="M129.207 1.38196V16.6011H124.907V1.38196H129.207Z" fill="#543C52" style="fill:#543C52;fill:color(display-p3 0.3294 0.2353 0.3216);fill-opacity:1;"/>
<path d="M144.629 5.2078H140.19V16.5842H135.891V5.2078H131.452V1.38196H144.647V5.2078H144.629Z" fill="#543C52" style="fill:#543C52;fill:color(display-p3 0.3294 0.2353 0.3216);fill-opacity:1;"/>
<path d="M1.37012 4.66858H8.19365V8.37644H3.3197C2.24047 8.37644 1.37012 7.53375 1.37012 6.4888V4.66858Z" fill="#543C52" style="fill:#543C52;fill:color(display-p3 0.3294 0.2353 0.3216);fill-opacity:1;"/>
<path d="M6.24427 15.809H1.37032L1.37032 12.1011H8.19385V13.9213C8.19385 14.9663 7.3235 15.809 6.24427 15.809Z" fill="#543C52" style="fill:#543C52;fill:color(display-p3 0.3294 0.2353 0.3216);fill-opacity:1;"/>
<path d="M8.29829 8.17419C8.26348 8.17419 8.22866 8.17419 8.19385 8.17419V11.8989C8.22866 11.8989 8.26348 11.8989 8.29829 11.8989C11.4141 11.8989 13.9381 14.3596 13.9381 17.3596C13.9381 20.3596 13.9381 17.427 13.9381 17.4607H17.7851C17.7851 17.427 17.7851 17.3933 17.7851 17.3596C17.7851 12.3034 13.5378 8.17419 8.29829 8.17419Z" fill="#543C52" style="fill:#543C52;fill:color(display-p3 0.3294 0.2353 0.3216);fill-opacity:1;"/>
<path d="M10.3175 0.539307C11.5012 0.539307 12.4411 1.46627 12.4411 2.59549C12.4411 3.74155 11.4838 4.65167 10.3175 4.65167H8.19385V2.59549C8.19385 1.44942 9.15123 0.539307 10.3175 0.539307Z" fill="#543C52" style="fill:#543C52;fill:color(display-p3 0.3294 0.2353 0.3216);fill-opacity:1;"/>
<path d="M14.0426 6.15168H14.1296C15.1915 6.15168 16.4622 6.01684 17.7503 5.79774C19.021 5.57864 20.2743 5.27527 21.2665 4.93819C21.3013 4.93819 21.3187 4.92134 21.3535 4.90448C21.2317 4.04493 20.7965 3.2528 20.1176 2.66291C19.4388 2.08988 18.5684 1.76965 17.6632 1.76965C15.8355 1.76965 14.3211 3.05055 14.0078 4.71909C13.973 4.92134 13.9556 5.14044 13.9556 5.35954C13.9556 5.57864 13.9556 5.46066 13.9556 5.49437C13.9556 5.71347 13.9904 5.93257 14.0426 6.13482V6.15168Z" fill="#543C52" style="fill:#543C52;fill:color(display-p3 0.3294 0.2353 0.3216);fill-opacity:1;"/>
<path d="M24.0689 4.28087C23.9819 3.80896 22.8679 3.55615 21.2316 3.55615C21.3361 3.7584 21.4231 3.96065 21.5101 4.17975C21.5101 4.21346 21.5275 4.24716 21.5449 4.28087C22.3108 4.28087 22.8156 4.36514 23.0942 4.44941C22.8505 4.61795 22.4153 4.85391 21.6842 5.12357L21.4405 5.20784L21.3535 5.24155C20.3787 5.57862 19.195 5.86514 17.9591 6.08424C17.9069 6.08424 17.8373 6.1011 17.785 6.11795C17.7154 6.11795 17.6458 6.1348 17.5762 6.15166C16.3751 6.35391 15.1914 6.45503 14.1818 6.47188H14.1122H13.7814C13.0155 6.47188 12.5107 6.38761 12.2322 6.30334C12.4759 6.1348 12.9111 5.89885 13.6422 5.62919C13.6422 5.59548 13.6422 5.56177 13.6422 5.52806C13.6422 5.4775 13.6422 5.42694 13.6422 5.37638C13.6422 5.20784 13.6422 5.02244 13.677 4.8539C12.1278 5.39323 11.1704 5.98312 11.2574 6.47188C11.3445 6.9775 12.6326 7.23031 14.4603 7.17975C14.5299 7.17975 14.5822 7.17975 14.6518 7.17975C15.5221 7.14604 16.4969 7.04492 17.4891 6.89323C17.5587 6.89323 17.6284 6.87638 17.698 6.85952C17.7676 6.85952 17.8373 6.84267 17.9069 6.82582C17.9765 6.82582 18.0461 6.80896 18.1158 6.79211C18.1854 6.79211 18.255 6.7584 18.3247 6.7584C19.3168 6.57301 20.2742 6.33705 21.0924 6.08424C21.1446 6.06739 21.2142 6.05053 21.2664 6.03368C23.0071 5.4775 24.1212 4.8202 24.0341 4.29773L24.0689 4.28087Z" fill="#543C52" style="fill:#543C52;fill:color(display-p3 0.3294 0.2353 0.3216);fill-opacity:1;"/>
<path d="M17.9766 7.11231C16.8277 7.31456 15.6789 7.43253 14.6519 7.46624C15.3481 8.39321 16.4622 8.94939 17.6459 8.94939C19.3343 8.94939 20.7617 7.85388 21.2143 6.35388C20.2395 6.65725 19.1254 6.91006 17.9766 7.11231Z" fill="#543C52" style="fill:#543C52;fill:color(display-p3 0.3294 0.2353 0.3216);fill-opacity:1;"/>
</g>
<defs>
<clipPath id="clip0_55_2238">
<rect width="145" height="18" fill="white" style="fill:white;fill-opacity:1;" transform="translate(0.5)"/>
</clipPath>
</defs>
</svg>
