<svg width="21" height="20" viewBox="0 0 21 20" fill="none" xmlns="http://www.w3.org/2000/svg">
<path d="M2.1665 5.00008C2.1665 4.11603 2.51769 3.26818 3.14281 2.64306C3.76794 2.01794 4.61578 1.66675 5.49984 1.66675H15.4998C16.3839 1.66675 17.2317 2.01794 17.8569 2.64306C18.482 3.26818 18.8332 4.11603 18.8332 5.00008V15.0001C18.8332 15.8841 18.482 16.732 17.8569 17.3571C17.2317 17.9822 16.3839 18.3334 15.4998 18.3334H5.49984C4.61578 18.3334 3.76794 17.9822 3.14281 17.3571C2.51769 16.732 2.1665 15.8841 2.1665 15.0001V5.00008Z" stroke="#070A1C" style="stroke:#070A1C;stroke:color(display-p3 0.0275 0.0392 0.1098);stroke-opacity:1;" stroke-width="1.66667" stroke-linecap="round" stroke-linejoin="round"/>
<path d="M7.58333 9.16679C8.73393 9.16679 9.66667 8.23405 9.66667 7.08346C9.66667 5.93286 8.73393 5.00012 7.58333 5.00012C6.43274 5.00012 5.5 5.93286 5.5 7.08346C5.5 8.23405 6.43274 9.16679 7.58333 9.16679Z" stroke="#070A1C" style="stroke:#070A1C;stroke:color(display-p3 0.0275 0.0392 0.1098);stroke-opacity:1;" stroke-width="1.66667" stroke-linecap="round" stroke-linejoin="round"/>
<path d="M12.605 10.5176L5.5 18.3334H15.6108C16.4655 18.3334 17.2851 17.9939 17.8895 17.3896C18.4938 16.7852 18.8333 15.9656 18.8333 15.1109V15.0001C18.8333 14.6118 18.6875 14.4626 18.425 14.1751L15.0667 10.5126C14.9101 10.3418 14.7198 10.2056 14.5076 10.1126C14.2955 10.0195 14.0664 9.9717 13.8347 9.97217C13.6031 9.97264 13.3741 10.0214 13.1624 10.1153C12.9507 10.2092 12.7608 10.3462 12.605 10.5176Z" stroke="#070A1C" style="stroke:#070A1C;stroke:color(display-p3 0.0275 0.0392 0.1098);stroke-opacity:1;" stroke-width="1.66667" stroke-linecap="round" stroke-linejoin="round"/>
</svg>
