<svg width="41" height="40" viewBox="0 0 41 40" fill="none" xmlns="http://www.w3.org/2000/svg">
<rect x="1.35938" y="0.5" width="39" height="39" rx="19.5" fill="white" style="fill:white;fill-opacity:1;"/>
<rect x="1.35938" y="0.5" width="39" height="39" rx="19.5" stroke="#543C52" style="stroke:#543C52;stroke:color(display-p3 0.3294 0.2353 0.3216);stroke-opacity:1;"/>
<path d="M14.1924 15.8333H27.5257M19.1924 19.1667V24.1667M22.5257 19.1667V24.1667M15.0257 15.8333L15.859 25.8333C15.859 26.2754 16.0346 26.6993 16.3472 27.0118C16.6598 27.3244 17.0837 27.5 17.5257 27.5H24.1924C24.6344 27.5 25.0583 27.3244 25.3709 27.0118C25.6835 26.6993 25.859 26.2754 25.859 25.8333L26.6924 15.8333M18.359 15.8333V13.3333C18.359 13.1123 18.4468 12.9004 18.6031 12.7441C18.7594 12.5878 18.9714 12.5 19.1924 12.5H22.5257C22.7467 12.5 22.9587 12.5878 23.115 12.7441C23.2713 12.9004 23.359 13.1123 23.359 13.3333V15.8333" stroke="#543C52" style="stroke:#543C52;stroke:color(display-p3 0.3294 0.2353 0.3216);stroke-opacity:1;" stroke-width="1.66667" stroke-linecap="round" stroke-linejoin="round"/>
</svg>
